<mxfile host="app.diagrams.net" modified="2022-10-04T16:42:05.179Z" agent="5.0 (Macintosh; Intel Mac OS X 10_15_7) AppleWebKit/537.36 (KHTML, like Gecko) Chrome/105.0.0.0 Safari/537.36" etag="oh8H2tCHKtjGe-s4F1Og" version="20.4.0" type="github">
  <diagram id="zUd6xa0raMeIInKoFcpr" name="Page-1">
    <mxGraphModel dx="-1695" dy="454" grid="1" gridSize="10" guides="1" tooltips="1" connect="1" arrows="1" fold="1" page="1" pageScale="1" pageWidth="827" pageHeight="1169" math="0" shadow="0">
      <root>
        <mxCell id="0" />
        <mxCell id="1" parent="0" />
        <UserObject label="Redis" id="gHjb5b28OfsgwWgYxNie-1">
          <mxCell style="rounded=0;whiteSpace=wrap;html=1;fillColor=#FFFFFF;fontFamily=Verdana;align=center;" vertex="1" parent="1">
            <mxGeometry x="2720" y="584.19" width="100" height="42.5" as="geometry" />
          </mxCell>
        </UserObject>
        <mxCell id="gHjb5b28OfsgwWgYxNie-2" value="setsid" style="rounded=0;whiteSpace=wrap;html=1;fillColor=#FFFFFF;fontFamily=Verdana;align=center;" vertex="1" parent="1">
          <mxGeometry x="2834" y="490" width="109.12" height="24.87" as="geometry" />
        </mxCell>
        <mxCell id="gHjb5b28OfsgwWgYxNie-3" value="&lt;font color=&quot;#ff3333&quot;&gt;数据结构 + 事件循环&lt;/font&gt;" style="text;html=1;strokeColor=none;fillColor=none;align=center;verticalAlign=middle;whiteSpace=wrap;rounded=0;" vertex="1" parent="1">
          <mxGeometry x="2706" y="550" width="128" height="25" as="geometry" />
        </mxCell>
      </root>
    </mxGraphModel>
  </diagram>
</mxfile>
